<?xml version="1.0" encoding="utf-8"?>
<!-- Generator: Adobe Illustrator 16.0.3, SVG Export Plug-In . SVG Version: 6.00 Build 0)  -->
<!DOCTYPE svg PUBLIC "-//W3C//DTD SVG 1.1//EN" "http://www.w3.org/Graphics/SVG/1.1/DTD/svg11.dtd">
<svg version="1.1" xmlns="http://www.w3.org/2000/svg" xmlns:xlink="http://www.w3.org/1999/xlink" x="0px" y="0px" width="211px"
	 height="292px" viewBox="0 0 211 292" enable-background="new 0 0 211 292" xml:space="preserve">
<g id="Layer_2">
</g>
<g id="Layer_1">
	<g id="CIRCLE_18_">
		<g>
			<path fill="#FFFFFF" d="M136.354,257.965c-0.83-0.001-1.609-0.326-2.195-0.921c-0.578-0.585-0.895-1.36-0.889-2.181
				c0.006-0.814,0.328-1.577,0.907-2.146c0.572-0.564,1.331-0.875,2.138-0.875c0.83,0,1.608,0.326,2.192,0.919
				c0.578,0.585,0.894,1.357,0.888,2.179c-0.004,0.815-0.326,1.58-0.906,2.15C137.917,257.654,137.159,257.965,136.354,257.965
				L136.354,257.965z"/>
			<path fill="#FFFFFF" d="M136.312,252.342c0.695,0,1.349,0.273,1.84,0.771c0.482,0.488,0.746,1.136,0.742,1.822
				c-0.004,0.683-0.273,1.32-0.758,1.799c-0.478,0.471-1.111,0.729-1.783,0.729c-0.696,0-1.351-0.274-1.84-0.771
				c-0.484-0.491-0.75-1.141-0.744-1.827c0.004-0.681,0.273-1.317,0.758-1.794C135.006,252.602,135.641,252.342,136.312,252.342
				 M136.312,251.342c-0.898,0-1.797,0.34-2.486,1.02c-1.399,1.377-1.409,3.633-0.024,5.035c0.702,0.711,1.628,1.068,2.552,1.068
				c0.899,0,1.799-0.339,2.485-1.02c1.397-1.377,1.409-3.637,0.024-5.035C138.162,251.698,137.236,251.342,136.312,251.342
				L136.312,251.342z"/>
		</g>
	</g>
	<g id="CIRCLE_5_">
		<g>
			<path fill="#FFFFFF" d="M134.363,244.557c-0.84,0-1.627-0.332-2.221-0.933c-1.197-1.218-1.188-3.185,0.021-4.383
				c0.578-0.569,1.347-0.884,2.162-0.884c0.839,0,1.625,0.33,2.213,0.931c0.589,0.595,0.909,1.38,0.903,2.211
				c-0.006,0.823-0.33,1.594-0.916,2.17C135.945,244.24,135.18,244.557,134.363,244.557L134.363,244.557z"/>
			<path fill="#FFFFFF" d="M134.325,238.857c0.704,0,1.362,0.276,1.858,0.783c0.493,0.498,0.762,1.156,0.758,1.854
				c-0.004,0.689-0.276,1.335-0.768,1.818c-0.484,0.479-1.128,0.742-1.812,0.742c-0.703,0-1.364-0.279-1.861-0.781
				c-1.006-1.023-1-2.674,0.012-3.676C132.998,239.121,133.643,238.857,134.325,238.857 M134.325,237.857
				c-0.909,0-1.816,0.343-2.515,1.027c-1.408,1.396-1.42,3.67-0.022,5.09c0.71,0.721,1.644,1.08,2.575,1.08
				c0.908,0,1.816-0.343,2.514-1.029c1.412-1.393,1.421-3.67,0.02-5.088C136.189,238.219,135.257,237.857,134.325,237.857
				L134.325,237.857z"/>
		</g>
	</g>
	<g id="SPLINE_22_">
		
			<path fill="#FFFFFF" stroke="#FFFFFF" stroke-width="2" stroke-linecap="round" stroke-linejoin="bevel" stroke-miterlimit="10" d="
			M116.15,246.889c0,2.955,0.004,5.912,0.011,8.87"/>
	</g>
	<g id="CIRCLE_4_">
		<g>
			<path fill="#FFFFFF" d="M107.667,270.484c-0.791,0-1.533-0.312-2.089-0.875c-1.129-1.146-1.12-2.994,0.02-4.121
				c0.544-0.535,1.267-0.83,2.032-0.83c0.79,0,1.531,0.311,2.089,0.874c0.549,0.556,0.848,1.291,0.846,2.069
				c-0.004,0.777-0.312,1.506-0.863,2.051C109.156,270.189,108.436,270.484,107.667,270.484L107.667,270.484z"/>
			<path fill="#FFFFFF" d="M107.63,265.158c0.655,0,1.271,0.258,1.731,0.725c0.455,0.461,0.705,1.071,0.701,1.717
				s-0.256,1.248-0.715,1.698c-0.449,0.443-1.046,0.688-1.682,0.688c-0.656,0-1.271-0.26-1.733-0.728
				c-0.936-0.948-0.929-2.481,0.014-3.413C106.398,265.402,106.996,265.158,107.63,265.158 M107.63,264.158
				c-0.862,0-1.723,0.324-2.384,0.975c-1.336,1.321-1.349,3.484-0.024,4.828c0.673,0.684,1.561,1.023,2.445,1.023
				c0.862,0,1.726-0.324,2.384-0.976c1.342-1.321,1.352-3.483,0.023-4.829C109.4,264.499,108.516,264.158,107.63,264.158
				L107.63,264.158z"/>
		</g>
	</g>
	<g id="POLYLINE_15_">
		
			<line fill="none" stroke="#FFFFFF" stroke-width="2" stroke-linecap="round" stroke-linejoin="bevel" stroke-miterlimit="10" x1="116.161" y1="255.759" x2="107.646" y2="264.156"/>
	</g>
	<g id="SPLINE_21_">
		<path fill="#FFFFFF" stroke="#FFFFFF" stroke-linecap="round" stroke-linejoin="bevel" stroke-miterlimit="10" d="
			M127.357,245.381c0.015,8.264,0.023,16.521,0.031,24.785"/>
	</g>
	<g id="SPLINE_5_">
		<path fill="#FFFFFF" stroke="#FFFFFF" stroke-linecap="round" stroke-linejoin="bevel" stroke-miterlimit="10" d="M122.01,246.393
			c0.006,4.035,0.01,8.072,0.016,12.107"/>
	</g>
	<g id="SPLINE_4_">
		<path fill="#FFFFFF" stroke="#FFFFFF" stroke-linecap="round" stroke-linejoin="bevel" stroke-miterlimit="10" d="M96.896,239.098
			c2.789,2.829,5.584,5.662,8.377,8.494"/>
	</g>
	<g id="CIRCLE_3_">
		<g>
			<path fill="#FFFFFF" d="M107.708,252.959c-0.79,0-1.53-0.312-2.086-0.877c-0.549-0.557-0.85-1.291-0.846-2.068
				s0.311-1.507,0.863-2.053c0.544-0.536,1.267-0.832,2.034-0.832c0.788,0,1.528,0.311,2.082,0.872
				c0.55,0.558,0.851,1.294,0.849,2.074c-0.004,0.776-0.31,1.505-0.859,2.048C109.197,252.662,108.475,252.959,107.708,252.959
				L107.708,252.959z"/>
			<path fill="#FFFFFF" d="M107.674,247.629c0.653,0,1.268,0.257,1.727,0.725c0.457,0.463,0.707,1.072,0.703,1.721
				c-0.002,0.644-0.254,1.244-0.711,1.693c-0.451,0.446-1.05,0.691-1.685,0.691c-0.653,0-1.269-0.259-1.73-0.729
				c-0.455-0.461-0.704-1.069-0.701-1.715c0.004-0.645,0.257-1.246,0.714-1.697C106.439,247.874,107.038,247.629,107.674,247.629
				 M107.674,246.629c-0.863,0-1.725,0.325-2.386,0.977c-1.339,1.321-1.351,3.482-0.022,4.828c0.672,0.684,1.558,1.025,2.442,1.025
				c0.862,0,1.726-0.326,2.388-0.979c1.338-1.317,1.346-3.48,0.018-4.83C109.441,246.971,108.559,246.629,107.674,246.629
				L107.674,246.629z"/>
		</g>
	</g>
	<g id="CIRCLE_2_">
		<g>
			<path fill="#FFFFFF" d="M122.049,264.826c-0.79,0-1.531-0.311-2.088-0.87c-1.128-1.147-1.121-2.998,0.018-4.122
				c0.545-0.538,1.27-0.834,2.037-0.834c0.789,0,1.527,0.311,2.084,0.874c0.549,0.556,0.851,1.291,0.846,2.069
				c-0.002,0.779-0.309,1.509-0.859,2.054C123.541,264.531,122.816,264.826,122.049,264.826L122.049,264.826z"/>
			<path fill="#FFFFFF" d="M122.016,259.5c0.652,0,1.268,0.257,1.729,0.727c0.455,0.461,0.704,1.069,0.701,1.717
				c-0.002,0.645-0.256,1.248-0.709,1.695c-0.452,0.443-1.051,0.688-1.688,0.688c-0.655,0-1.271-0.257-1.729-0.72
				c-0.937-0.953-0.932-2.486,0.01-3.416C120.779,259.745,121.38,259.5,122.016,259.5 M122.016,258.5
				c-0.863,0-1.727,0.325-2.39,0.979c-1.337,1.32-1.345,3.48-0.021,4.83c0.672,0.678,1.559,1.019,2.442,1.019
				c0.863,0,1.726-0.324,2.388-0.974c1.338-1.321,1.349-3.485,0.02-4.83C123.783,258.842,122.898,258.5,122.016,258.5L122.016,258.5
				z"/>
		</g>
	</g>
	<g id="CIRCLE_1_">
		<g>
			<path fill="#FFFFFF" d="M127.418,276.495c-0.791,0-1.533-0.312-2.091-0.875c-0.55-0.558-0.851-1.296-0.845-2.079
				c0.006-0.775,0.313-1.5,0.863-2.042c0.545-0.536,1.268-0.831,2.034-0.831c0.788,0,1.528,0.311,2.083,0.873
				c0.551,0.557,0.852,1.291,0.848,2.07c-0.002,0.779-0.309,1.508-0.858,2.053C128.908,276.2,128.186,276.495,127.418,276.495z"/>
			<path fill="#FFFFFF" d="M127.381,271.168c0.653,0,1.268,0.257,1.729,0.725c0.457,0.461,0.705,1.07,0.703,1.717
				c-0.004,0.646-0.256,1.248-0.711,1.699c-0.449,0.442-1.047,0.688-1.684,0.688c-0.656,0-1.271-0.258-1.734-0.727
				c-0.457-0.463-0.705-1.074-0.699-1.725c0.004-0.643,0.258-1.241,0.713-1.689C126.148,271.412,126.746,271.168,127.381,271.168
				 M127.381,270.168c-0.863,0-1.724,0.324-2.385,0.975c-1.344,1.32-1.352,3.484-0.023,4.83c0.672,0.682,1.561,1.022,2.445,1.022
				c0.863,0,1.725-0.324,2.387-0.976c1.334-1.32,1.348-3.484,0.016-4.83C129.148,270.509,128.264,270.168,127.381,270.168
				L127.381,270.168z"/>
		</g>
	</g>
	<g id="POLYLINE_4_">
		
			<line fill="none" stroke="#FFFFFF" stroke-linecap="round" stroke-linejoin="bevel" stroke-miterlimit="10" x1="111.664" y1="229.468" x2="127.357" y2="245.381"/>
	</g>
	<g id="POLYLINE_3_">
		
			<line fill="none" stroke="#FFFFFF" stroke-linecap="round" stroke-linejoin="bevel" stroke-miterlimit="10" x1="106.775" y1="230.941" x2="122.01" y2="246.393"/>
	</g>
	<g id="POLYLINE_2_">
		
			<line fill="none" stroke="#FFFFFF" stroke-width="2" stroke-linecap="round" stroke-linejoin="bevel" stroke-miterlimit="10" x1="101.885" y1="232.415" x2="116.15" y2="246.889"/>
	</g>
	<g id="LINE_9_">
		
			<line fill="none" stroke="#FFFFFF" stroke-linecap="round" stroke-linejoin="bevel" stroke-miterlimit="10" x1="106.573" y1="155.717" x2="106.775" y2="230.941"/>
	</g>
	<g id="LINE_2_">
		
			<line fill="none" stroke="#FFFFFF" stroke-linecap="round" stroke-linejoin="bevel" stroke-miterlimit="10" x1="111.467" y1="155.73" x2="111.664" y2="229.468"/>
	</g>
	<g id="SPLINE_3_">
		<path fill="#FFFFFF" stroke="#FFFFFF" stroke-linecap="round" stroke-linejoin="bevel" stroke-miterlimit="10" d="M96.781,155.691
			c0.035,27.806,0.073,55.603,0.115,83.406"/>
	</g>
	<g id="LINE_1_">
		
			<line fill="none" stroke="#FFFFFF" stroke-width="2" stroke-linecap="round" stroke-linejoin="bevel" stroke-miterlimit="10" x1="101.675" y1="155.706" x2="101.885" y2="232.415"/>
	</g>
	<g id="POLYLINE_1_">
		<path fill="#FFFFFF" stroke="#FFFFFF" stroke-linecap="round" stroke-linejoin="bevel" stroke-miterlimit="10" d="M111.467,155.73
			"/>
	</g>
	<path fill="#FFFFFF" d="M172.648,72.811c-1.293-0.954-10.848-2.084-20.438-1.116c-9.591,0.966-19.213,4.034-26.389,11.141
		c-7.174,7.107-11.903,18.258-14.967,29.787c-0.55,2.066-1.044,4.145-1.49,6.201c-1.049-6.964-2.486-14.617-4.425-22.167
		c-4.239-16.509-10.861-32.493-21.026-42.733C73.751,43.684,60.043,39.187,46.356,37.69c-13.687-1.498-27.352,0-29.211,1.348
		c-1.858,1.346,8.095,2.542,13.915,17.701c5.818,15.163,7.509,44.287,18.125,62.432c10.618,18.141,30.164,25.308,41.917,28.763
		c8.872,2.609,13.299,3.103,15.942,2.872c2.948-0.044,7.617-0.618,13.192-2.206c8.248-2.351,21.973-7.25,29.509-19.89
		c7.54-12.635,8.896-33.011,13.06-43.592C166.968,74.543,173.941,73.765,172.648,72.811z"/>
</g>
</svg>
